<svg width="32" height="32" viewBox="0 0 32 32" fill="none" xmlns="http://www.w3.org/2000/svg">
<path d="M29.9098 10.2643C29.8941 9.08867 29.6737 7.9247 29.2583 6.82448C28.8981 5.89646 28.348 5.05364 27.6431 4.34989C26.9382 3.64613 26.0939 3.09692 25.1644 2.73733C24.0765 2.32964 22.9272 2.10919 21.7654 2.08538C20.2697 2.01863 19.7954 2 15.9984 2C12.2015 2 11.7148 2 10.2299 2.08538C9.06866 2.10936 7.91991 2.32981 6.83252 2.73733C5.9028 3.09667 5.05845 3.64579 4.35349 4.34958C3.64854 5.05336 3.09849 5.89631 2.73856 6.82448C2.32937 7.90973 2.10903 9.05683 2.08707 10.2162C2.02021 11.7111 2 12.1845 2 15.9752C2 19.7658 2 20.2501 2.08707 21.7341C2.1104 22.8952 2.32963 24.0408 2.73856 25.129C3.0991 26.0568 3.64955 26.8994 4.35474 27.6029C5.05994 28.3064 5.90436 28.8553 6.83407 29.2146C7.91849 29.6386 9.06744 29.8749 10.2315 29.9131C11.7288 29.9798 12.203 30 16 30C19.797 30 20.2837 30 21.7685 29.9131C22.9303 29.8902 24.0796 29.6703 25.1675 29.2627C26.0968 28.9027 26.9408 28.3533 27.6457 27.6496C28.3506 26.9459 28.9008 26.1033 29.2614 25.1755C29.6704 24.0889 29.8896 22.9433 29.9129 21.7807C29.9798 20.2874 30 19.8139 30 16.0217C29.9969 12.2311 29.9969 11.7499 29.9098 10.2643V10.2643ZM15.9891 23.1436C12.018 23.1436 8.80098 19.9319 8.80098 15.9674C8.80098 12.0029 12.018 8.79122 15.9891 8.79122C17.8955 8.79122 19.7239 9.54728 21.0719 10.8931C22.4199 12.2389 23.1773 14.0642 23.1773 15.9674C23.1773 17.8706 22.4199 19.6959 21.0719 21.0417C19.7239 22.3875 17.8955 23.1436 15.9891 23.1436V23.1436ZM23.4634 10.1991C23.2432 10.1993 23.0251 10.1562 22.8217 10.0722C22.6182 9.98815 22.4334 9.8649 22.2777 9.70948C22.122 9.55405 21.9985 9.3695 21.9144 9.16639C21.8302 8.96327 21.787 8.74559 21.7872 8.52578C21.7872 8.30613 21.8305 8.08864 21.9147 7.88571C21.9989 7.68278 22.1223 7.4984 22.2779 7.34309C22.4335 7.18777 22.6182 7.06457 22.8214 6.98052C23.0247 6.89646 23.2426 6.8532 23.4626 6.8532C23.6826 6.8532 23.9004 6.89646 24.1037 6.98052C24.307 7.06457 24.4917 7.18777 24.6472 7.34309C24.8028 7.4984 24.9262 7.68278 25.0104 7.88571C25.0946 8.08864 25.1379 8.30613 25.1379 8.52578C25.1379 9.45094 24.3885 10.1991 23.4634 10.1991Z" fill="white"/>
<path d="M16 21C18.7614 21 21 18.7614 21 16C21 13.2386 18.7614 11 16 11C13.2386 11 11 13.2386 11 16C11 18.7614 13.2386 21 16 21Z" fill="white"/>
</svg>
