<svg width="351" height="40" viewBox="0 0 351 40" fill="none" xmlns="http://www.w3.org/2000/svg">
<path d="M21.8079 12.3069V16.1529H9.13175C5.57505 16.1529 3.76592 17.9989 3.76592 21.7341V30.3489C3.76592 34.0902 5.57505 35.9855 9.13175 35.9855H21.8079V39.776H8.4118C2.78752 39.8191 0 36.8716 0 31.0258V21.1249C0 15.2791 2.78752 12.3069 8.4118 12.3069H21.8079Z" fill="white"/>
<path d="M31.2289 12.3808V30.392C31.2289 34.1333 33.0318 36.0286 36.5455 36.0286H45.2957C48.8586 36.0286 50.6677 34.1333 50.6677 30.392V12.3808H54.3598V31.0258C54.3598 36.8716 51.523 39.8191 45.948 39.8191H35.8747C30.2505 39.8191 27.463 36.8716 27.463 31.0258V12.3808H31.2289Z" fill="white"/>
<path d="M65.6822 0V30.3981C65.6822 34.1333 67.4851 36.0286 70.9988 36.0286H79.8536C83.4165 36.0286 85.2194 34.1333 85.2194 30.3981V21.7833C85.2194 18.0481 83.4165 16.2021 79.8536 16.2021H67.5467V12.3377H80.6105C86.2347 12.3377 89.0161 15.2852 89.0161 21.131V31.0258C89.0161 36.8716 86.2347 39.8191 80.6105 39.8191H70.328C64.7038 39.8191 61.9162 36.8716 61.9162 31.0258V0H65.6822Z" fill="white"/>
<path d="M99.6862 30.3982C99.6862 34.1333 101.532 36.0286 105.224 36.0286H113.224C116.916 36.0286 118.793 34.1333 118.793 30.3982V21.7833C118.793 18.0481 116.916 16.2021 113.224 16.2021H105.224C101.532 16.2021 99.6862 18.0481 99.6862 21.7833V30.3982ZM113.981 12.3377C119.765 12.3377 122.713 15.2852 122.713 21.131V31.0258C122.713 36.8716 119.765 39.8191 113.981 39.8191H104.504C98.6709 39.8191 95.7788 36.8716 95.7788 31.0258V21.131C95.7788 15.2852 98.6709 12.3377 104.504 12.3377H113.981Z" fill="white"/>
<path d="M152.126 12.3377V15.6544H135.481C133.155 15.6544 132.023 16.7559 132.023 18.9158V21.0756C132.023 23.0755 133.05 24.0785 135.223 24.0785H147.431C151.357 24.0785 153.314 25.9738 153.314 29.709V33.7149C153.314 37.77 151.203 39.8191 146.97 39.8191H128.608V36.5024H145.979C148.44 36.5024 149.671 35.4502 149.671 33.2411V30.152C149.671 28.1521 148.637 27.1491 146.52 27.1491H134.293C130.367 27.1491 128.355 25.2538 128.355 21.5125V18.4358C128.355 14.4299 130.423 12.3808 134.552 12.3808L152.126 12.3377Z" fill="white"/>
<path d="M175.072 11.9685H179.177L169.436 39.776H165.331L175.072 11.9685Z" fill="#E5007B"/>
<path d="M183.312 11.9685H187.416L177.675 39.776H173.571L183.312 11.9685Z" fill="#E5007B"/>
<path d="M204.535 19.6911C205.852 20.8603 206.517 22.6263 206.517 24.9893V34.0287H202.209V32.0473C201.34 33.5241 199.725 34.2625 197.366 34.2625C196.278 34.2897 195.197 34.0797 194.197 33.6472C193.362 33.2839 192.648 32.6879 192.142 31.9304C191.669 31.1975 191.423 30.3412 191.435 29.469C191.408 28.7966 191.546 28.1279 191.837 27.5209C192.127 26.914 192.562 26.3871 193.102 25.9861C194.214 25.141 195.931 24.7185 198.253 24.7185H201.914C201.942 24.2881 201.874 23.8569 201.715 23.4558C201.557 23.0548 201.312 22.6937 200.997 22.3986C200.213 21.8002 199.236 21.5111 198.253 21.5864C197.406 21.588 196.565 21.723 195.76 21.9864C195.008 22.2179 194.304 22.5826 193.681 23.0632L192.025 19.8449C192.974 19.1968 194.027 18.7179 195.139 18.4297C196.356 18.0966 197.612 17.9289 198.874 17.9312C201.331 17.9189 203.218 18.5055 204.535 19.6911ZM200.603 30.6197C201.214 30.2544 201.675 29.6826 201.902 29.0075V27.383H198.757C196.866 27.383 195.92 27.9983 195.92 29.229C195.912 29.502 195.971 29.7728 196.092 30.0175C196.214 30.2623 196.393 30.4733 196.616 30.632C197.178 31.0034 197.845 31.1826 198.517 31.1427C199.247 31.1608 199.968 30.98 200.603 30.6197Z" fill="white"/>
<path d="M212.787 33.2287C211.469 32.5685 210.364 31.5481 209.602 30.2859C208.839 29.0236 208.45 27.5712 208.48 26.0969C208.449 24.6232 208.838 23.1711 209.601 21.9097C210.363 20.6482 211.468 19.6292 212.787 18.9711C214.199 18.2565 215.764 17.8974 217.347 17.9251C218.875 17.8881 220.387 18.2485 221.734 18.9711C222.955 19.6337 223.916 20.6899 224.46 21.9679L220.91 23.8755C220.583 23.2083 220.074 22.648 219.441 22.26C218.808 21.872 218.077 21.6725 217.334 21.6848C216.784 21.6695 216.236 21.7663 215.724 21.9694C215.212 22.1726 214.747 22.4777 214.356 22.8663C213.952 23.2949 213.639 23.8012 213.436 24.3543C213.233 24.9075 213.144 25.4961 213.175 26.0846C213.143 26.6731 213.231 27.2619 213.435 27.8152C213.638 28.3684 213.951 28.8746 214.356 29.3028C214.746 29.6926 215.211 29.9985 215.723 30.2017C216.235 30.4049 216.784 30.5011 217.334 30.4843C218.077 30.503 218.809 30.3075 219.443 29.9212C220.077 29.5349 220.586 28.9741 220.91 28.306L224.479 30.2566C223.915 31.5111 222.958 32.5479 221.753 33.2103C220.407 33.9396 218.895 34.3045 217.365 34.2687C215.777 34.3012 214.205 33.9442 212.787 33.2287Z" fill="white"/>
<path d="M238.601 19.6911C239.934 20.8439 240.601 22.6017 240.601 24.9646V34.0287H236.293V32.0473C235.432 33.5241 233.832 34.2625 231.457 34.2625C230.366 34.2904 229.283 34.0804 228.281 33.6472C227.446 33.2839 226.733 32.6879 226.226 31.9304C225.756 31.1962 225.51 30.3408 225.519 29.469C225.494 28.7968 225.633 28.1287 225.923 27.522C226.214 26.9153 226.647 26.3882 227.186 25.9861C228.298 25.141 230.015 24.7185 232.337 24.7185H236.029C236.052 24.2814 235.977 23.8447 235.81 23.4402C235.643 23.0356 235.387 22.6735 235.063 22.3802C234.276 21.7824 233.297 21.4934 232.312 21.5679C231.476 21.5728 230.645 21.7077 229.851 21.9679C229.099 22.2008 228.395 22.5654 227.771 23.0448L226.115 19.8265C227.064 19.1794 228.118 18.7006 229.229 18.4112C230.446 18.0781 231.702 17.9105 232.964 17.9128C235.405 17.9128 237.284 18.5055 238.601 19.6911ZM234.675 30.6443C235.286 30.279 235.747 29.7072 235.973 29.0321V27.383H232.817C230.925 27.383 229.98 27.9983 229.98 29.229C229.971 29.502 230.031 29.7728 230.152 30.0175C230.273 30.2623 230.453 30.4733 230.675 30.632C231.239 31.0043 231.908 31.1835 232.583 31.1427C233.315 31.1632 234.039 30.9823 234.675 30.6197V30.6443Z" fill="white"/>
<path d="M260.507 12.1223V34.0287H256.108V32.1827C254.971 33.561 253.318 34.2502 251.148 34.2502C249.732 34.2715 248.335 33.9259 247.093 33.2472C245.888 32.5864 244.899 31.5931 244.244 30.3858C243.535 29.0627 243.179 27.5792 243.21 26.0784C243.178 24.5775 243.534 23.0938 244.244 21.771C244.896 20.5612 245.886 19.567 247.093 18.9096C248.335 18.2309 249.732 17.8854 251.148 17.9066C252.032 17.8573 252.917 18.0032 253.739 18.334C254.561 18.6647 255.3 19.1721 255.904 19.8203V12.1223H260.507ZM254.84 29.2905C255.233 28.8582 255.536 28.3523 255.733 27.802C255.929 27.2518 256.015 26.6681 255.984 26.0846C256.014 25.5016 255.928 24.9185 255.73 24.3692C255.533 23.8199 255.228 23.3153 254.834 22.8848C254.061 22.1163 253.016 21.685 251.926 21.685C250.837 21.685 249.791 22.1163 249.019 22.8848C248.624 23.3153 248.32 23.8199 248.122 24.3692C247.925 24.9185 247.838 25.5016 247.868 26.0846C247.838 26.6685 247.925 27.2524 248.122 27.8027C248.32 28.353 248.625 28.8587 249.019 29.2905C249.793 30.056 250.838 30.4853 251.926 30.4853C253.015 30.4853 254.06 30.056 254.834 29.2905H254.84Z" fill="white"/>
<path d="M279.048 27.383H267.061C267.248 28.3318 267.801 29.1692 268.599 29.7151C269.486 30.3124 270.539 30.6139 271.608 30.5766C272.357 30.5896 273.102 30.4644 273.805 30.2074C274.474 29.9406 275.082 29.5431 275.596 29.0382L278.057 31.6965C276.56 33.4072 274.375 34.2625 271.503 34.2625C269.857 34.2972 268.227 33.9385 266.747 33.2164C265.43 32.5684 264.324 31.5589 263.559 30.3059C262.829 29.022 262.446 27.5706 262.446 26.0938C262.446 24.617 262.829 23.1656 263.559 21.8817C264.282 20.6441 265.334 19.632 266.599 18.9588C267.92 18.2788 269.382 17.9205 270.868 17.913C272.353 17.9055 273.819 18.2491 275.146 18.9158C276.391 19.5675 277.421 20.5655 278.112 21.7894C278.852 23.1202 279.224 24.624 279.189 26.1461C279.134 26.2076 279.103 26.6199 279.048 27.383ZM268.291 22.2817C267.568 22.8942 267.104 23.7586 266.993 24.7H274.814C274.693 23.7652 274.231 22.9081 273.516 22.294C272.789 21.6865 271.865 21.3668 270.919 21.3956C269.964 21.3616 269.03 21.6766 268.291 22.2817Z" fill="white"/>
<path d="M306.695 19.6911C307.864 20.8603 308.449 22.6202 308.449 24.9585V34.0287H303.846V25.6415C303.922 24.6397 303.646 23.6428 303.065 22.8232C302.787 22.5087 302.442 22.2615 302.055 22.1005C301.668 21.9395 301.249 21.8689 300.831 21.894C300.353 21.871 299.875 21.9527 299.432 22.1334C298.989 22.3141 298.591 22.5894 298.265 22.9401C297.574 23.8272 297.237 24.9386 297.317 26.0599V34.0287H292.714V25.6415C292.714 23.1432 291.711 21.894 289.705 21.894C289.231 21.873 288.758 21.9556 288.319 22.1363C287.88 22.317 287.486 22.5913 287.164 22.9401C286.476 23.8281 286.14 24.9394 286.223 26.0599V34.0287H281.614V18.1466H286.013V19.9926C286.609 19.3202 287.352 18.7956 288.186 18.4604C289.08 18.0976 290.038 17.9177 291.004 17.9312C292.054 17.9138 293.095 18.1391 294.044 18.5896C294.936 19.0227 295.692 19.6934 296.228 20.528C296.878 19.6956 297.724 19.0362 298.689 18.6081C299.717 18.1484 300.832 17.9174 301.957 17.9312C302.825 17.8886 303.692 18.0226 304.507 18.3251C305.321 18.6276 306.066 19.0923 306.695 19.6911Z" fill="white"/>
<path d="M327.463 18.1466L320.288 35.0009C319.556 36.847 318.658 38.1208 317.587 38.8715C316.441 39.6413 315.084 40.0349 313.704 39.9976C312.869 39.9969 312.039 39.8682 311.243 39.616C310.516 39.4005 309.842 39.0381 309.261 38.5515L310.947 35.2717C311.308 35.5928 311.725 35.8432 312.178 36.0101C312.614 36.185 313.08 36.2768 313.55 36.2809C314.098 36.3054 314.639 36.1426 315.082 35.8194C315.556 35.407 315.921 34.8853 316.147 34.2994L316.208 34.1518L309.329 18.1527H314.079L318.547 28.9213L323.057 18.1466H327.463Z" fill="white"/>
<path d="M338.441 11.9685H342.545L332.804 39.776H328.7L338.441 11.9685Z" fill="#E5007B"/>
<path d="M346.68 11.9685H350.785L341.038 39.776H336.939L346.68 11.9685Z" fill="#E5007B"/>
</svg>
